<?xml version="1.0" encoding="UTF-8"?>
<svg xmlns="http://www.w3.org/2000/svg" viewBox="0 0 332 489" width="332" height="489">
<path d="M245.03 168.7C248.63 164.26 246.54 155.54 250.71 150.45C252.63 148.12 255.19 150.03 257.25 148.5C260.67 151.25 264.08 154 267.5 156.75C268.18 158.94 269.12 162.39 271.5 163.25C269.17 157.29 264.73 152.96 259.75 149C258.2 147.77 255.9 147.1 255.08 145.36C258.94 145.5 262.36 150.13 265.13 152.63C267.79 155.03 270.18 156.97 271.87 160.34C274.03 164.66 273.39 170.11 273.28 174.75C273.14 181.09 272.93 187.45 272.29 193.75C271.8 198.56 270.24 203.12 270.34 208C269.89 208.58 269.45 209.17 269 209.75C269.05 211.83 269.09 213.92 269.14 216C266.6 228.67 261.71 239.82 256.94 251.72C254.49 257.83 252.44 264.32 249.44 270.19C246.65 275.64 243.2 280.86 240.25 286.15C239.86 286.43 239.47 286.72 239.08 287C238.33 287.39 236.68 287.76 236.2 287.25C235.53 288.42 234.86 289.58 234.19 290.75C235.3 291.03 235.6 290.99 235.92 292C235.66 293.29 235.02 295.65 233.5 295.75C233.52 297.93 226.93 309.07 225.08 309.5C225.14 308.83 225.19 308.17 225.25 307.5C223.93 307.19 222.21 310.19 221.75 311.5C222.95 311.24 223.64 310.27 223.92 311.5C222.83 314.45 220.18 317.68 218.11 320.06C215.82 322.7 214.21 327.06 212.09 330.06C209.67 333.47 208.29 337.78 206.18 341.43C204.18 344.89 201.51 347.73 199.44 351.02C196.98 354.89 194.68 358.85 192.08 362.56C189.47 366.26 187.1 370.51 184.72 374.33C183.67 376.02 183.1 379.4 181.08 380C180.97 379.5 180.86 379 180.75 378.5C179.32 380.26 176.58 381.52 178.25 384C177.65 384.18 176.86 383.94 176.28 384.27C175.1 384.92 172.04 389.27 172.25 391C171.31 391.92 170.36 392.83 169.42 393.75C169.97 394.33 170.52 394.92 171.07 395.5C170.79 395.67 170.52 395.83 170.25 396C170.24 396.34 170.23 396.67 170.22 397.01C168.77 397.54 168.77 397.39 168.75 396C167.2 396.94 166.24 398.17 166 399.75C164.32 400.78 163.19 401.78 163 403.75C164.67 402.08 166.33 400.42 168 398.75C167.82 399.36 167.64 399.97 167.46 400.58C156.72 414.73 144.49 429.71 127.92 437.68C119.22 441.87 110.22 443.03 101 445.41C92 445.33 83 445.25 74 445.16C72.44 445 70.89 444.83 69.33 444.66C68.79 443.26 66.37 442.92 64.84 442.41C61.14 441.17 54.15 438.21 50.5 438.65C42.59 437.27 34.51 432.52 27.59 428.67C24.03 426.7 19.99 425.36 16.88 422.66C14.7 417.42 5.03 414.63 4.5 406.75C5.99 405.12 7.48 403.5 8.96 401.87C17.58 397.61 30.9 400.48 40.5 400.08C64.04 399.09 92.14 395.71 100.58 369.5C102.16 364.6 102.78 360.17 103.1 355C103.52 348.06 103.27 340.43 102.7 333.5C102.44 330.2 101.03 327.29 100.97 324C101.31 323.92 101.66 323.83 102 323.75C102.13 321.85 102.76 320.16 104.5 319.25C104.59 318.5 104.68 317.75 104.77 317C105.36 316.56 105.94 316.12 106.53 315.67C112.95 316.78 117.16 322.73 122.75 325C123 325.67 123.25 326.33 123.5 327C125.36 330.53 128.95 332.43 133 331.52C140.07 330.15 146.85 336.34 154.05 335.63C154.63 335.79 155.21 335.96 155.8 336.12C156.28 336.66 156.77 337.21 157.25 337.75C157.49 337.9 157.72 338.04 157.96 338.19C159.14 338.78 160.32 339.37 161.5 339.96C162.92 339.8 164.33 339.65 165.75 339.5C169.58 341.78 172.01 338.26 174.25 335.5C175.33 335.42 176.42 335.33 177.5 335.25C178.14 334.69 178.46 333.7 179.02 333.28C180.27 332.33 182.2 332.24 183.5 331.25C183.97 331.41 184.44 331.56 184.92 331.72C191.63 331.05 197.04 322.91 202.5 319.25C203.72 313.76 209.46 309.28 210.2 303C210.98 302.92 211.77 302.83 212.55 302.75C214.83 299.3 215.34 295.23 216.67 291.37C218.69 285.49 221.31 280.43 222.61 274.27C223.16 271.66 225.81 267.94 224.25 265.5C223.75 267.17 223.25 268.83 222.75 270.5C222.4 270.67 222.05 270.83 221.7 271C221.47 266.52 224.03 261.59 225.41 257.21C226.2 254.71 225.76 251.98 226.23 249.42C226.51 247.91 227.39 246.53 227.59 245C227.8 243.44 227.21 241.67 227.53 240.16C227.8 238.89 228.41 238.1 228.5 236.75C227.67 237.42 226.83 238.08 226 238.75C225.44 240.94 223.25 242.29 221.89 244.14C220.08 246.6 218.58 249.49 216.41 251.66C214.52 253.57 212.09 254.72 210.14 256.58C209.67 256.55 209.21 256.53 208.75 256.5C207.03 257.9 205.32 259.29 203.6 260.69C193.8 266.24 182.82 268.55 173.03 273.8C172.44 274.36 171.84 274.93 171.25 275.5C168.58 275.83 165.92 276.17 163.25 276.5C161.94 275.41 160.77 275.22 159.5 276.42C155.61 277 152.63 277.51 149 278.95C140.94 281.38 132.98 281.6 124.5 280.53C120.39 278.15 115.74 277.98 111.29 276.18C108.65 271.85 93.58 271.85 94.37 263.8C99.12 257.54 106.29 252.63 112.14 247.4C119.33 240.98 119.43 237.7 129.5 235.05C133.17 234.09 136.84 230.87 140.76 230.96C144.36 231.04 146.19 233.5 148.87 235.38C153.14 238.38 158.32 241.04 163.5 241.85C165.39 243.9 170.36 242.9 172.84 242.09C180.38 239.65 187.14 236.5 191.77 230.02C193 228.29 194.41 227.13 194.39 224.88C196.52 224.2 196.76 222.02 198.52 220.77C200.71 219.2 208.12 216.64 210.84 216.09C213.55 215.55 216.82 216.92 219 214.98C220.64 214.94 222.28 214.89 223.92 214.85C225.23 215.79 227.85 215.22 229.73 215.52C233.5 216.11 237.17 217.67 240.75 219C244.17 214.78 237.22 211 233.5 211C231.61 209.37 216.37 209.39 214.5 211C208.84 211 203.91 214.27 198.25 212.5C196.9 211.15 189.13 198.8 188.59 197.16C188.27 196.15 188.5 194.79 188.5 193.75C189.11 192.77 189.71 191.8 190.32 190.82C192.16 189.84 194 188.86 195.84 187.88C198.88 187.54 206.81 185.9 206.73 182C206.74 181 206.74 180 206.75 179C202.31 176.85 200.46 175.87 195.71 178.15C191.61 177.98 188.43 182.56 184.75 184C184.56 184.4 184.37 184.8 184.19 185.2C178.52 189.19 170.48 189.99 163.75 190.32C149.41 191.01 135.21 189.74 121.68 185.14C116.27 183.31 107.61 183.23 104.4 177.79C101.22 172.41 101.98 163 102.65 157C104.63 139.47 112.59 123.89 129.14 116.42C131.34 115.43 133.66 113.69 135.92 113.3C135.53 114.03 135.14 114.77 134.75 115.5C138.77 113.93 141.88 110.83 146.5 111.75C146.08 113.17 145.67 114.58 145.25 116C145.83 116.42 146.42 116.83 147 117.25C145.17 118.25 143.33 119.25 141.5 120.25C140.67 122.08 139.83 123.92 139 125.75C139.68 126.83 140.44 129.03 141.52 129.73C144.08 131.41 146.75 129.93 149.27 129.52C153.99 128.74 160.22 127.87 164.25 131.5C165.38 132.52 165.39 134.47 166 135.75C165.12 136.92 164.23 138.08 163.35 139.25C163.38 141.65 164.56 144.63 163.03 146.25C163.52 147.42 164.01 148.58 164.5 149.75C167.18 151.84 171.12 151.9 174.25 153.05C175.08 152.73 175.92 152.41 176.75 152.08C177.72 150.4 184.81 147.89 187.29 146.52C188.37 145.93 190.23 145.9 190.25 144.5C192.17 144.38 192.86 143.72 194.25 142.5C197.01 142.67 199.08 140.4 201.17 138.92C204.17 136.81 207.37 136.84 210.75 136.47C212.39 136.29 213.64 136.26 215 137.25C215.12 138.49 217.37 145.77 218 145.75C217.17 149.9 221.66 157.87 223.75 161.75C224.93 160.29 225.25 163.54 225.3 164.25C228.14 167.53 233.18 173.23 237.77 173.5C240.3 173.64 245.84 172.18 245.03 168.7ZM237.75 226.5C233.16 225.42 228.57 224.33 223.98 223.25C223.98 224.33 223.98 225.42 223.98 226.5C225.78 228.74 228.19 230.12 228.5 233.25C232.06 232.82 237.56 230.35 237.75 226.5ZM140.75 278.97C137.25 279.22 133.75 279.48 130.25 279.73C132.64 281.09 139.67 281.3 140.75 278.97ZM142.5 335.92C144.08 336.02 144.53 336.23 145 334.75C144.67 334.64 144.33 334.53 144 334.42C143.92 334.28 143.83 334.14 143.75 334C142.5 334.25 141.25 334.5 140 334.75C140.58 335.17 141.17 335.58 141.75 336C142 335.97 142.25 335.94 142.5 335.92ZM145.75 335C145.87 335.08 145.99 335.17 146.11 335.25C145.99 335.22 145.87 335.19 145.75 335.15C145.83 335.19 145.92 335.22 146 335.25C145.92 335.17 145.83 335.08 145.75 335Z" fill="#cd2027" fill-rule="evenodd" stroke="#cd2027" stroke-width="0.25" stroke-linejoin="round"/>
<path d="M145.5 107.92C145.08 107.94 144.67 107.97 144.25 108C144.03 108.17 143.81 108.33 143.58 108.5C142.45 106.22 136.07 107.34 133.54 104.25C136.85 98.66 144.59 98.66 150 96.04C157.69 92.3 166.6 87.06 175.25 86.49C180.02 86.18 184.72 87.85 189.5 88.07C194.03 88.28 200.27 87.29 204.23 90.02C207.95 92.59 205.21 99.8 207.75 103C211.13 100.44 208.61 96.2 208.02 92.73C207.03 87.01 207.69 79.76 208 73.75C209.34 47.62 223.88 21.09 250.5 14.08C255.62 12.73 261.92 7.67 267.32 10.75C271.78 13.29 268.88 27.28 266.25 30.56C261.42 36.61 254.53 37.01 248.55 41.07C237.91 48.31 227.06 56.02 222 68.5C218.93 76.06 218.45 84.21 219.85 92.25C220.31 94.89 221.31 99.8 224.25 100C224.62 98.08 225 96.17 225.37 94.25C232.14 90.97 240.2 94.44 247 96.02C262.73 99.69 283.8 101.2 296.42 112.35C301.98 117.25 307.7 126.73 305.04 134.25C302.01 135.38 299.06 132.78 296.47 131.02C290.06 126.68 280.57 116.06 273 116.75C271.2 122.17 273.88 125.12 276.31 129.97C279.53 136.38 282.64 142.71 285.58 149.15C287.42 153.16 290.63 159.12 287.75 163.04C283.23 162.63 280.96 158.61 277.5 156.17C269.45 150.5 262.13 142.53 255.49 135.26C252.88 132.4 248.64 129.16 247 125.75C246.17 125.75 245.33 125.75 244.5 125.75C241.72 134.79 245.83 152.66 236.75 157.96C232.43 156.67 231.05 152.68 229.23 149.03C227.44 145.45 224.9 141.52 223.72 137.77C222.04 132.46 222.29 127.08 218.5 122.75C212.3 123.73 206.14 127.02 200.83 130.21C199.21 131.19 197.17 131.17 195.55 132.05C192.12 133.91 189.26 136.14 185.5 137.45C182.24 138.58 178.53 141.35 174.77 140.01C170.09 138.34 169.78 130.19 170 126.25C167.37 124.21 159.42 123.49 156.75 124.65C155.81 123.68 154.87 122.72 153.92 121.75C155.94 117.19 161.36 111.88 165.75 109.5C165.75 108.67 165.75 107.83 165.75 107C161.26 106.42 149.16 106 145.5 107.92ZM140.75 278.97C139.67 281.3 132.64 281.09 130.25 279.73C133.75 279.48 137.25 279.22 140.75 278.97Z" fill="#246034" fill-rule="evenodd" stroke="#246034" stroke-width="0.25" stroke-linejoin="round"/>
<path d="M132.07 196.58C132.38 196.75 132.69 196.92 133 197.08C133.25 197.61 133.5 198.14 133.75 198.67C136.29 199.46 137.01 200.17 139.1 201.75C139.96 207.88 136.87 210.98 136.85 216.25C136.84 218.83 138.53 219.6 139.06 221.75C138.29 222.67 137.52 223.58 136.75 224.5C134.61 224.86 132.88 226.28 132 228.25C129.25 229 126.5 229.75 123.75 230.5C123.42 230.18 123.08 229.87 122.75 229.55C121.58 229.87 120.42 230.19 119.25 230.51C117.05 229.65 111.84 227.09 110 227.25C108.91 225.17 106.86 224.06 105.52 222.2C104.03 220.14 103.44 217.53 102.25 215.35C101.73 215.4 101.21 215.45 100.69 215.5C100.62 213.25 100.56 211 100.5 208.75C100.68 208.62 100.85 208.49 101.03 208.37C101.48 208.16 101.94 207.96 102.39 207.75C103.92 203.6 109.32 197.03 113.78 195.5C116.88 194.45 120.79 195.33 124 195.25C125.96 197.42 129.44 197.78 132.07 196.58ZM160 199.08C162.17 199.02 164.33 198.96 166.5 198.9C170.08 199.12 173.67 199.34 177.25 199.55C178.38 201.19 179.31 201.3 181.25 201.44C182.28 202.82 187.39 209.65 187.8 210.88C188.91 214.21 187.79 219.09 187.75 222.5C185.5 225.25 183.25 228 181 230.75C178.04 230.89 174.57 232.99 173 235.25C169.33 235.34 165.67 235.44 162 235.53C161.67 235.49 161.33 235.45 161 235.42C161.11 232.69 152.76 229.34 150.25 228.5C150.42 225.59 147.17 221.58 146.26 218.53C144.96 214.18 147.81 209.35 150.25 206.33C150.16 205.39 150.07 204.44 149.97 203.5C150.15 203.32 150.32 203.15 150.5 202.97C151.58 202.93 152.67 202.89 153.75 202.85C154.81 200.72 156.56 200.87 158.75 200.85C159.17 200.26 159.58 199.67 160 199.08ZM122.38 203C122.13 203 121.88 203 121.63 203C118.51 201.74 115.32 203.38 112.79 205.25C112.02 207.67 109.8 212.76 110.7 215.1C111.01 215.89 111.82 216.34 112.13 217.16C112.65 218.52 112.54 219.91 113.19 221.25C116.02 222.89 118.74 224.73 122.24 224.48C125.99 224.21 128.51 221.83 131.25 222.54C131.42 221.19 131.58 219.85 131.75 218.5C135.46 216.61 133.7 211.7 134.16 208.25C129.91 207.28 130.89 199.49 122.38 203ZM177.75 206C173.81 200.68 163.58 207.31 161.81 212.08C159.27 218.92 165.23 223.29 168.75 227.72C173.18 228.5 180.36 227.46 182.75 223.02C183.16 222.25 182.98 221.3 183.41 220.53C183.81 219.81 184.6 219.55 184.91 218.7C186.48 214.46 182.41 205.92 177.75 206ZM220.5 252.08C219.57 254.11 223.45 256.3 218.46 258.75C218.47 260.42 218.49 262.08 218.5 263.75C217.53 263.5 216.56 263.25 215.58 263C215.35 259.44 215.34 252.13 220.5 252.08ZM212.92 265C212.63 265.09 211.97 264.96 211.8 265.34C211.64 265.73 212.29 266.31 212.33 266.77C212.48 268.29 211.08 271.61 211.06 273.75C211.01 279.93 210.96 291.34 206.33 295.75C206.1 297.45 205.97 300.54 204.25 300.42C202.42 299.92 203.25 292.47 202.58 290.5C202.58 288.16 202.58 285.83 202.58 283.49C202.81 277.99 203.03 272.5 203.25 267C205.44 266.45 209.26 263.77 210 261.75C209 262.25 208 262.75 207 263.25C207.47 262.33 207.94 261.42 208.42 260.5C208.53 260.33 208.64 260.17 208.75 260C209.42 260 210.08 260 210.75 260C211.5 260.75 212.25 261.5 213 262.25C212.97 263.17 212.94 264.08 212.92 265ZM197.5 268.58C197.92 268.89 198.33 269.19 198.75 269.5C198.81 279.83 198.86 290.17 198.92 300.5C197.7 301.98 185.91 302.98 183.25 303.04C182.42 302.19 181.58 301.35 180.75 300.5C180.64 292.67 180.53 284.83 180.42 277C180.44 276.42 180.47 275.83 180.5 275.25C181.25 274.5 182 273.75 182.75 273C183 272.97 183.25 272.94 183.5 272.92C186.41 273.53 189.26 273.98 191.25 271.5C193.35 271.48 194.5 271.05 195.5 269.25C196.17 269.03 196.83 268.81 197.5 268.58ZM157.5 279.92C157.75 279.44 158 278.97 158.25 278.5C158.75 278.33 159.25 278.17 159.75 278C160.47 278 161.19 278 161.92 278C162.56 279.25 161.28 279.01 160.25 279.5C161.66 280.8 165.97 279.52 167.5 278.25C166.83 278.08 166.17 277.92 165.5 277.75C166.92 277.5 168.33 277.25 169.75 277C169.25 277.33 168.75 277.67 168.25 278C170.92 277.83 173.58 277.67 176.25 277.5C176.08 285.78 175.92 294.05 175.75 302.33C170.08 302.52 164.42 302.7 158.75 302.89C157.56 299.39 157.42 283 159.5 280.25C158.83 280.14 158.17 280.03 157.5 279.92ZM153.55 284.08C153.5 285.41 153.46 286.75 153.42 288.08C151.07 289.66 152.66 294.32 152.74 296.75C152.96 296.85 153.19 296.94 153.42 297.04C153.42 298.37 153.42 299.7 153.42 301.04C151.28 301.56 150.57 304.07 148.25 304.62C143.53 305.73 137.92 303.1 133.47 305.42C132.71 305.42 131.95 305.42 131.19 305.42C129.47 304.53 127.75 303.64 126.03 302.75C125.94 296.5 125.84 290.25 125.75 284C133.84 283.85 143.83 284.57 151.25 281.5C151.46 282.95 151.87 284.55 153.55 284.08ZM202.92 306C202.92 306.33 202.92 306.67 202.92 307C202.07 307.58 201.22 308.17 200.37 308.75C199.33 310.83 198.29 312.92 197.25 315C194.3 315.56 194.52 318.84 191.85 319.75C191.55 322.11 188.89 323.53 187.25 325C187.3 319.42 187.36 313.83 187.41 308.25C191.55 305.31 198.08 306.02 202.92 306ZM152.93 307.58C153.59 307.58 154.26 307.58 154.92 307.58C154.7 307.84 154.47 308.1 154.25 308.36C155.11 308.99 155.98 309.62 156.84 310.25C157.2 314.33 157.56 318.42 157.92 322.5C157.92 323.17 157.92 323.83 157.92 324.5C157.69 327.5 157.47 330.5 157.25 333.5C156.67 333.92 156.08 334.33 155.5 334.75C157.25 335.13 157.79 335.47 155.8 336.12C155.21 335.96 154.63 335.79 154.05 335.63C153.61 334.53 153.89 334.59 155 334.25C153 333.09 148.63 331.93 146.75 333.5C145.34 330.54 140.05 329.97 137.25 328.37C137.25 328.92 137.25 329.46 137.25 330C136.17 329.75 135.08 329.5 134 329.25C133.8 328.27 134.95 326.75 135.05 325.34C135.12 324.18 134.3 322.89 134.15 321.72C133.73 318.34 133.23 313.56 134 310.25C140.16 308.1 147.34 311.74 152.93 307.58ZM182.07 308.19C182.87 312.6 182.02 320.05 181.79 324.74C181.67 327.21 180.02 330.58 182.5 329.75C181.79 333.07 180.61 329.8 178.74 330.61C174.2 332.57 167.44 337.09 162.57 334.25C162.57 325.56 162.57 316.87 162.57 308.19C169.07 308.19 175.57 308.19 182.07 308.19ZM124.75 308.5C125.98 309.08 127.21 309.67 128.44 310.25C128.44 312.08 128.44 313.92 128.44 315.75C129.62 317.63 130.94 317.74 129.5 320.75C129.12 320.25 128.74 319.75 128.35 319.25C128.35 321.08 128.35 322.92 128.35 324.75C126.71 324.3 116 318.29 115.65 317.25C114.07 316.74 113.08 316.19 111.75 317C111.55 315.44 111.25 315.15 110 314.25C111.96 314.07 112.67 313.74 113.75 312.07C118.45 311.53 121.25 308.92 124.75 308.5ZM195 320.25C193.69 321.56 192.14 323.93 190.75 323.5C191.33 321.77 193.18 319.9 195 320.25Z" fill="#ffffff" fill-rule="evenodd" stroke="#ffffff" stroke-width="0.25" stroke-linejoin="round"/>
<path d="M132.07 196.58C129.44 197.78 125.96 197.42 124 195.25C120.79 195.33 116.88 194.45 113.78 195.5C109.32 197.03 103.92 203.6 102.39 207.75C101.94 207.96 101.48 208.16 101.03 208.37C100.98 200.28 111.97 191.8 119.73 193.02C123.94 193.67 127.92 195.98 132.07 196.58ZM133 197.08C134.9 197.1 135.99 198.23 137.52 199.23C142.97 202.81 139.5 207.18 139.5 212.25C139.5 215.78 140.23 220.22 139.41 223.66C138.42 227.79 131.41 230.88 127.84 231.59C116.09 233.94 103.34 227.63 100.69 215.5C101.21 215.45 101.73 215.4 102.25 215.35C103.44 217.53 104.03 220.14 105.52 222.2C106.86 224.06 108.91 225.17 110 227.25C111.84 227.09 117.05 229.65 119.25 230.51C120.42 230.19 121.58 229.87 122.75 229.55C123.08 229.87 123.42 230.18 123.75 230.5C126.5 229.75 129.25 229 132 228.25C132.88 226.28 134.61 224.86 136.75 224.5C137.52 223.58 138.29 222.67 139.06 221.75C138.53 219.6 136.84 218.83 136.85 216.25C136.87 210.98 139.96 207.88 139.1 201.75C137.01 200.17 136.29 199.46 133.75 198.67C133.5 198.14 133.25 197.61 133 197.08ZM162 235.53C165.67 235.44 169.33 235.34 173 235.25C174.57 232.99 178.04 230.89 181 230.75C183.25 228 185.5 225.25 187.75 222.5C187.79 219.09 188.91 214.21 187.8 210.88C187.39 209.65 182.28 202.82 181.25 201.44C179.31 201.3 178.38 201.19 177.25 199.55C173.67 199.34 170.08 199.12 166.5 198.9C177.16 193.59 188.85 203.8 190.48 214.27C192.15 224.89 180.36 236 170.25 236C167.87 236 163.96 236.69 162 235.53ZM160 199.08C159.58 199.67 159.17 200.26 158.75 200.85C156.56 200.87 154.81 200.72 153.75 202.85C152.67 202.89 151.58 202.93 150.5 202.97C152.71 199.77 156.3 198.84 160 199.08ZM121.63 203C118.83 204.52 114.29 205.16 113.09 208.84C111.28 214.45 113.01 219.6 118.5 221.75C120.04 222.35 121.5 223.26 123.23 222.98C130.62 221.81 134.12 213.03 129.73 207.02C127.95 204.56 124.77 204.31 122.38 203C130.89 199.49 129.91 207.28 134.16 208.25C133.7 211.7 135.46 216.61 131.75 218.5C131.58 219.85 131.42 221.19 131.25 222.54C128.51 221.83 125.99 224.21 122.24 224.48C118.74 224.73 116.02 222.89 113.19 221.25C112.54 219.91 112.65 218.52 112.13 217.16C111.82 216.34 111.01 215.89 110.7 215.1C109.8 212.76 112.02 207.67 112.79 205.25C115.32 203.38 118.51 201.74 121.63 203ZM149.97 203.5C150.07 204.44 150.16 205.39 150.25 206.33C147.81 209.35 144.96 214.18 146.26 218.53C147.17 221.58 150.42 225.59 150.25 228.5C152.76 229.34 161.11 232.69 161 235.42C159.15 235.4 157.86 234.24 156.16 233.59C145.13 229.39 139.21 210.93 149.97 203.5ZM177.75 206C182.41 205.92 186.48 214.46 184.91 218.7C184.6 219.55 183.81 219.81 183.41 220.53C182.98 221.3 183.16 222.25 182.75 223.02C180.36 227.46 173.18 228.5 168.75 227.72C165.23 223.29 159.27 218.92 161.81 212.08C163.58 207.31 173.81 200.68 177.75 206ZM182.5 220.25C182.5 217.58 183.36 213.29 181.73 211.02C177.7 205.36 166.37 204.46 164.09 212.34C160.41 225.13 175.73 230.59 182.5 220.25ZM220.5 252.08C224.24 254.29 219.11 265.6 216.25 266.5C216.03 265.33 215.81 264.17 215.58 263C216.56 263.25 217.53 263.5 218.5 263.75C218.49 262.08 218.47 260.42 218.46 258.75C223.45 256.3 219.57 254.11 220.5 252.08ZM208.42 260.5C207.94 261.42 207.47 262.33 207 263.25C208 262.75 209 262.25 210 261.75C209.26 263.77 205.44 266.45 203.25 267C203.03 272.5 202.81 277.99 202.58 283.49C202.22 278.08 201.86 272.66 201.5 267.25C203.04 264.79 205.78 261.6 208.42 260.5ZM212.92 265C213.28 272.86 213.64 280.72 214 288.58C214 288.81 214 289.03 214 289.25C212.82 290.47 212.93 291.3 213.08 293C212.97 291.83 212.86 290.67 212.75 289.5C210.86 291.39 208.69 300.73 206.5 299.25C206.48 301.55 205.83 302.19 203.75 303C200.93 299.52 202.31 294.66 202.58 290.5C203.25 292.47 202.42 299.92 204.25 300.42C205.97 300.54 206.1 297.45 206.33 295.75C210.96 291.34 211.01 279.93 211.06 273.75C211.08 271.61 212.48 268.29 212.33 266.77C212.29 266.31 211.64 265.73 211.8 265.34C211.97 264.96 212.63 265.09 212.92 265ZM197.5 268.58C196.83 268.81 196.17 269.03 195.5 269.25C194.5 271.05 193.35 271.48 191.25 271.5C189.26 273.98 186.41 273.53 183.5 272.92C185.26 271.99 187.79 271.61 189.75 272C190.4 269.93 195.38 268.44 197.5 268.58ZM173.03 273.8C173.17 276.12 175.58 276.29 177.5 277.25C179.78 282.03 178.5 296.19 178.5 302.25C177.67 303.42 176.83 304.58 176 305.75C177.34 307.03 179.37 307.2 181.25 306.5C182.33 308.42 183.42 310.33 184.5 312.25C182.81 316.79 185.24 325.95 184.92 331.72C184.44 331.56 183.97 331.41 183.5 331.25C182.2 332.24 180.27 332.33 179.02 333.28C178.46 333.7 178.14 334.69 177.5 335.25C176.42 335.33 175.33 335.42 174.25 335.5C172.01 338.26 169.58 341.78 165.75 339.5C164.33 339.65 162.92 339.8 161.5 339.96C162 339.55 162.5 339.15 163 338.75C160.58 333.91 161 321.1 161 315.25C161 312.41 160.4 309.44 162.5 307.25C166.42 307 170.33 306.75 174.25 306.5C171.17 303.42 161.59 307.82 157 304.25C155.38 299.89 156.11 291.84 156.5 287.25C156.72 284.69 155.87 282.05 157.5 279.92C158.17 280.03 158.83 280.14 159.5 280.25C157.42 283 157.56 299.39 158.75 302.89C164.42 302.7 170.08 302.52 175.75 302.33C175.92 294.05 176.08 285.78 176.25 277.5C173.58 277.67 170.92 277.83 168.25 278C168.75 277.67 169.25 277.33 169.75 277C168.33 277.25 166.92 277.5 165.5 277.75C166.17 277.92 166.83 278.08 167.5 278.25C165.97 279.52 161.66 280.8 160.25 279.5C161.28 279.01 162.56 279.25 161.92 278C162.28 277.75 162.64 277.5 163 277.25C162.75 277 162.5 276.75 162.25 276.5C161.33 276.47 160.42 276.44 159.5 276.42C160.77 275.22 161.94 275.41 163.25 276.5C165.92 276.17 168.58 275.83 171.25 275.5C171.84 274.93 172.44 274.36 173.03 273.8ZM180.42 277C180.53 284.83 180.64 292.67 180.75 300.5C181.58 301.35 182.42 302.19 183.25 303.04C185.91 302.98 197.7 301.98 198.92 300.5C198.44 301.92 197.97 303.33 197.5 304.75C199.4 305.13 201.49 304.6 202.92 306C198.08 306.02 191.55 305.31 187.41 308.25C187.36 313.83 187.3 319.42 187.25 325C188.89 323.53 191.55 322.11 191.85 319.75C194.52 318.84 194.3 315.56 197.25 315C198.29 312.92 199.33 310.83 200.37 308.75C201.22 308.17 202.07 307.58 202.92 307C203 308.55 202.89 309.02 201.5 309.75C202.41 311.89 200.46 313.38 199.27 315.02C196.33 319.04 192.33 327.13 186.75 327.5C185.41 325.78 186 322.88 186 320.75C186 315.27 185.77 309.79 186.75 304.5C185.08 304.33 183.42 304.17 181.75 304C181.17 303.42 180.58 302.83 180 302.25C180.14 293.83 180.28 285.42 180.42 277ZM149 278.95C149 279.22 149 279.48 149 279.75C151.42 280.47 152.46 281.55 154.15 283.25C153.95 283.53 153.75 283.8 153.55 284.08C151.87 284.55 151.46 282.95 151.25 281.5C143.83 284.57 133.84 283.85 125.75 284C125.84 290.25 125.94 296.5 126.03 302.75C127.75 303.64 129.47 304.53 131.19 305.42C129.21 305.61 127.23 305.81 125.25 306C122.55 302.52 122.8 288.82 123.52 284.27C123.72 282.97 124.39 281.86 124.5 280.53C132.98 281.6 140.94 281.38 149 278.95ZM153.42 288.08C153.42 291.07 153.42 294.05 153.42 297.04C153.19 296.94 152.96 296.85 152.74 296.75C152.66 294.32 151.07 289.66 153.42 288.08ZM153.42 301.04C153.28 302.27 153.14 303.51 153 304.75C147.44 307.53 139.39 305.88 133.47 305.42C137.92 303.1 143.53 305.73 148.25 304.62C150.57 304.07 151.28 301.56 153.42 301.04ZM123.5 327C123.25 326.33 123 325.67 122.75 325C117.16 322.73 112.95 316.78 106.53 315.67C107.1 312.89 111.74 312.1 114.16 311.41C118.82 310.06 123.75 303.94 128.98 307.77C132.69 310.47 131.5 322.37 131.5 326.75C128.42 329.25 126.47 325.57 123.5 327ZM152.93 307.58C147.34 311.74 140.16 308.1 134 310.25C133.23 313.56 133.73 318.34 134.15 321.72C134.3 322.89 135.12 324.18 135.05 325.34C134.95 326.75 133.8 328.27 134 329.25C135.08 329.5 136.17 329.75 137.25 330C137.25 329.46 137.25 328.92 137.25 328.37C140.05 329.97 145.34 330.54 146.75 333.5C148.63 331.93 153 333.09 155 334.25C153.89 334.59 153.61 334.53 154.05 335.63C146.85 336.34 140.07 330.15 133 331.52C133 326 133 320.77 133 315.25C133 313.02 132.35 309.8 133.75 308C139.07 305.46 147.25 307.1 152.93 307.58ZM154.92 307.58C155.78 307.81 156.64 308.03 157.5 308.25C157.64 313 157.78 317.75 157.92 322.5C157.56 318.42 157.2 314.33 156.84 310.25C155.98 309.62 155.11 308.99 154.25 308.36C154.47 308.1 154.7 307.84 154.92 307.58ZM182.07 308.19C175.57 308.19 169.07 308.19 162.57 308.19C162.57 316.87 162.57 325.56 162.57 334.25C167.44 337.09 174.2 332.57 178.74 330.61C180.61 329.8 181.79 333.07 182.5 329.75C180.02 330.58 181.67 327.21 181.79 324.74C182.02 320.05 182.87 312.6 182.07 308.19ZM124.75 308.5C121.25 308.92 118.45 311.53 113.75 312.07C112.67 313.74 111.96 314.07 110 314.25C111.25 315.15 111.55 315.44 111.75 317C113.08 316.19 114.07 316.74 115.65 317.25C116 318.29 126.71 324.3 128.35 324.75C128.35 322.92 128.35 321.08 128.35 319.25C128.74 319.75 129.12 320.25 129.5 320.75C130.94 317.74 129.62 317.63 128.44 315.75C128.44 313.92 128.44 312.08 128.44 310.25C127.21 309.67 125.98 309.08 124.75 308.5ZM195 320.25C193.18 319.9 191.33 321.77 190.75 323.5C192.14 323.93 193.69 321.56 195 320.25ZM157.92 324.5C158.23 329.19 158.09 333.51 157.96 338.19C157.72 338.04 157.49 337.9 157.25 337.75C156.77 337.21 156.28 336.66 155.8 336.12C157.79 335.47 157.25 335.13 155.5 334.75C156.08 334.33 156.67 333.92 157.25 333.5C157.47 330.5 157.69 327.5 157.92 324.5Z" fill="#e6dddc" fill-rule="evenodd" stroke="#e6dddc" stroke-width="0.25" stroke-linejoin="round"/>
<path d="M145.5 107.92C147.52 109.03 149.54 110.14 151.55 111.25C151.52 112.75 151.48 114.25 151.44 115.75C148.57 117.84 146.39 122.33 142.5 123.25C142 124.42 141.5 125.58 141 126.75C142.28 128.03 143.99 128.34 145.75 128.5C146.89 128.4 147.34 127.64 148.27 127.48C148.95 127.37 149.42 128.04 150.16 127.87C150.63 127.76 150.72 127.07 151.27 126.98C151.81 126.89 152.21 127.47 152.73 127.44C157.36 127.21 160.33 127.67 164.75 127.91C165.53 129.13 167.07 130.42 167.41 131.84C168.78 137.58 165.94 142.63 167 148.25C167.58 148.83 168.17 149.42 168.75 150C174.69 151.8 184.14 142.5 190.25 141.5C192.03 140.03 194 139.56 195.98 138.55C202.31 135.34 208.71 131.02 215.75 132.41C218.29 135.51 219.15 138.3 219.91 142C220.72 145.98 223.06 150.11 224.43 154C225.89 158.17 228.76 162.13 231 165.75C232.11 167.55 234.09 167.81 235.25 169.5C237.33 169.58 239.42 169.67 241.5 169.75C241.96 168.27 243.01 166.99 243.46 165.5C245.16 159.91 243.97 152.41 248.42 148.37C248.53 150.74 247.03 152.56 246.59 154.84C245.79 159.04 245.84 163.69 243.91 167.66C243.23 169.04 241.84 170.1 241.25 171.24C242.51 170.4 243.77 169.55 245.03 168.7C245.84 172.18 240.3 173.64 237.77 173.5C233.18 173.23 228.14 167.53 225.3 164.25C225.25 163.54 224.93 160.29 223.75 161.75C221.66 157.87 217.17 149.9 218 145.75C217.37 145.77 215.12 138.49 215 137.25C213.64 136.26 212.39 136.29 210.75 136.47C207.37 136.84 204.17 136.81 201.17 138.92C199.08 140.4 197.01 142.67 194.25 142.5C192.86 143.72 192.17 144.38 190.25 144.5C190.23 145.9 188.37 145.93 187.29 146.52C184.81 147.89 177.72 150.4 176.75 152.08C175.92 152.41 175.08 152.73 174.25 153.05C171.12 151.9 167.18 151.84 164.5 149.75C164.01 148.58 163.52 147.42 163.03 146.25C164.56 144.63 163.38 141.65 163.35 139.25C164.23 138.08 165.12 136.92 166 135.75C165.39 134.47 165.38 132.52 164.25 131.5C160.22 127.87 153.99 128.74 149.27 129.52C146.75 129.93 144.08 131.41 141.52 129.73C140.44 129.03 139.68 126.83 139 125.75C139.83 123.92 140.67 122.08 141.5 120.25C143.33 119.25 145.17 118.25 147 117.25C146.42 116.83 145.83 116.42 145.25 116C145.67 114.58 146.08 113.17 146.5 111.75C141.88 110.83 138.77 113.93 134.75 115.5C135.14 114.77 135.53 114.03 135.92 113.3C138.36 112.03 140.81 110.77 143.25 109.5C143.36 109.17 143.47 108.83 143.58 108.5C143.81 108.33 144.03 108.17 144.25 108C144.67 107.97 145.08 107.94 145.5 107.92ZM195.71 178.15C193.98 179.18 192.24 180.22 190.5 181.25C189.3 183.3 186.39 184.75 184.19 185.2C184.37 184.8 184.56 184.4 184.75 184C188.43 182.56 191.61 177.98 195.71 178.15ZM206.73 182C206.81 185.9 198.88 187.54 195.84 187.88C197.71 185.34 201.65 184.91 204.5 184.25C205.24 183.5 205.99 182.75 206.73 182ZM190.32 190.82C189.71 191.8 189.11 192.77 188.5 193.75C188.5 194.79 188.27 196.15 188.59 197.16C189.13 198.8 196.9 211.15 198.25 212.5C203.91 214.27 208.84 211 214.5 211C212.57 213.17 202.95 213.92 199.75 214.32C194.62 212.01 193.28 206.4 190.46 202.05C189.43 200.44 187.73 199.06 187.04 197.28C186.03 194.64 187.68 191.39 190.32 190.82ZM270.34 208C270.14 209.5 269.95 211 269.75 212.5C269.7 213.58 269.64 214.67 269.59 215.75C269.44 215.83 269.29 215.92 269.14 216C269.09 213.92 269.05 211.83 269 209.75C269.45 209.17 269.89 208.58 270.34 208ZM233.5 211C231.33 212.01 230.59 210.84 228.66 210.66C224.92 210.3 217.86 212.51 214.5 211C216.37 209.39 231.61 209.37 233.5 211ZM233.5 211C237.22 211 244.17 214.78 240.75 219C237.17 217.67 233.5 216.11 229.73 215.52C227.85 215.22 225.23 215.79 223.92 214.85C226.1 212.84 232.27 214.24 234.66 215.17C236.74 215.97 238.66 218.57 241 216.75C238.89 212.54 235.28 213.1 233.5 211ZM219 214.98C216.82 216.92 213.55 215.55 210.84 216.09C208.12 216.64 200.71 219.2 198.52 220.77C196.76 222.02 196.52 224.2 194.39 224.88C196.18 217.73 212.75 213.48 219 214.98ZM194.39 224.88C194.41 227.13 193 228.29 191.77 230.02C187.14 236.5 180.38 239.65 172.84 242.09C170.36 242.9 165.39 243.9 163.5 241.85C165.62 241.31 167.82 241.71 170 241.49C174.8 240.99 182.22 238 185.95 234.92C188.9 232.47 191.79 226.35 194.39 224.88ZM210.14 256.58C210.01 256.93 209.88 257.29 209.75 257.64C209.08 258.31 208.42 258.98 207.75 259.65C206.57 259.52 207.01 259.32 206.25 260.59C205.75 260.39 205.25 260.2 204.75 260C204.37 260.23 203.99 260.46 203.6 260.69C205.32 259.29 207.03 257.9 208.75 256.5C209.21 256.53 209.67 256.55 210.14 256.58ZM94.37 263.8C93.58 271.85 108.65 271.85 111.29 276.18C107.15 276.04 93.43 270.14 93.19 265.25C93.59 264.77 93.98 264.29 94.37 263.8ZM104.77 317C104.68 317.75 104.59 318.5 104.5 319.25C102.76 320.16 102.13 321.85 102 323.75C101.66 323.83 101.31 323.92 100.97 324C100.98 322.75 100.99 321.5 101 320.25C101.16 319.75 101.33 319.25 101.49 318.75C102.24 318.16 103 317.57 103.75 316.98C104.09 316.98 104.43 316.99 104.77 317ZM144 334.42C143.33 334.69 142.67 334.97 142 335.25C142.17 335.47 142.33 335.69 142.5 335.92C142.25 335.94 142 335.97 141.75 336C141.17 335.58 140.58 335.17 140 334.75C141.25 334.5 142.5 334.25 143.75 334C143.83 334.14 143.92 334.28 144 334.42ZM8.96 401.87C7.48 403.5 5.99 405.12 4.5 406.75C5.03 414.63 14.7 417.42 16.88 422.66C12.29 421.39 2.66 411.02 2.47 406.25C4.13 404.07 6.28 402.21 8.96 401.87ZM50.5 438.65C54.15 438.21 61.14 441.17 64.84 442.41C66.37 442.92 68.79 443.26 69.33 444.66C67.16 445.03 65.55 443.64 63.5 443.01C59.55 441.8 53.58 441.53 50.5 438.65ZM74 445.16C83 445.25 92 445.33 101 445.41C95.63 447.39 88.65 446.72 83 446.48C80.27 446.36 76.27 446.78 74 445.16Z" fill="#a83e42" fill-rule="evenodd" stroke="#a83e42" stroke-width="0.25" stroke-linejoin="round"/>
<path d="M255.08 145.36C255.9 147.1 258.2 147.77 259.75 149C264.73 152.96 269.17 157.29 271.5 163.25C269.12 162.39 268.18 158.94 267.5 156.75C264.08 154 260.67 151.25 257.25 148.5C255.19 150.03 252.63 148.12 250.71 150.45C246.54 155.54 248.63 164.26 245.03 168.7C243.77 169.55 242.51 170.4 241.25 171.24C241.84 170.1 243.23 169.04 243.91 167.66C245.84 163.69 245.79 159.04 246.59 154.84C247.03 152.56 248.53 150.74 248.42 148.37C250.03 146.71 251.64 145.05 253.25 143.38C253.86 144.04 254.47 144.7 255.08 145.36ZM210.2 303C209.86 302.92 209.52 302.83 209.18 302.75C210.67 299.97 212.82 296.29 213.08 293C212.93 291.3 212.82 290.47 214 289.25C214 289.03 214 288.81 214 288.58C215.67 285.47 217.33 282.36 219 279.25C218.59 276.06 219.79 273.34 220.81 270.25C221.11 270.5 221.4 270.75 221.7 271C222.05 270.83 222.4 270.67 222.75 270.5C223.25 268.83 223.75 267.17 224.25 265.5C225.81 267.94 223.16 271.66 222.61 274.27C221.31 280.43 218.69 285.49 216.67 291.37C215.34 295.23 214.83 299.3 212.55 302.75C211.77 302.83 210.98 302.92 210.2 303ZM239.08 287C239.22 287.08 239.36 287.17 239.5 287.25C239.08 287.83 238.67 288.42 238.25 289C237.92 289.5 237.58 290 237.25 290.5C237.15 291.08 237.04 291.67 236.94 292.25C236.6 292.17 236.26 292.08 235.92 292C235.6 290.99 235.3 291.03 234.19 290.75C234.86 289.58 235.53 288.42 236.2 287.25C236.68 287.76 238.33 287.39 239.08 287ZM225.08 309.5C225.42 309.75 225.76 310 226.1 310.25C225.65 310.88 225.2 311.52 224.75 312.15C224.47 311.93 224.19 311.72 223.92 311.5C223.64 310.27 222.95 311.24 221.75 311.5C222.21 310.19 223.93 307.19 225.25 307.5C225.19 308.17 225.14 308.83 225.08 309.5ZM144 334.42C144.33 334.53 144.67 334.64 145 334.75C144.53 336.23 144.08 336.02 142.5 335.92C142.33 335.69 142.17 335.47 142 335.25C142.67 334.97 143.33 334.69 144 334.42ZM145.75 335C145.83 335.08 145.92 335.17 146 335.25C145.92 335.22 145.83 335.19 145.75 335.15C145.87 335.19 145.99 335.22 146.11 335.25C145.99 335.17 145.87 335.08 145.75 335ZM181.08 380C181.11 380.58 181.13 381.17 181.15 381.75C178.52 384.19 173.56 394.77 171.07 395.5C170.52 394.92 169.97 394.33 169.42 393.75C170.36 392.83 171.31 391.92 172.25 391C172.04 389.27 175.1 384.92 176.28 384.27C176.86 383.94 177.65 384.18 178.25 384C176.58 381.52 179.32 380.26 180.75 378.5C180.86 379 180.97 379.5 181.08 380ZM170.22 397.01C169.73 397.67 169.24 398.34 168.75 399C168.58 399.55 168.42 400.1 168.25 400.64C167.99 400.62 167.73 400.6 167.46 400.58C167.64 399.97 167.82 399.36 168 398.75C166.33 400.42 164.67 402.08 163 403.75C163.19 401.78 164.32 400.78 166 399.75C166.24 398.17 167.2 396.94 168.75 396C168.77 397.39 168.77 397.54 170.22 397.01Z" fill="#be585e" fill-rule="evenodd" stroke="#be585e" stroke-width="0.25" stroke-linejoin="round"/>
</svg>